# xmcd CD database file
#
# Track frame offsets:
#	150
#	11857
#	23515
#	40290
#	58352
#	73725
#	90555
#	104382
#	117557
#	130002
#	146355
#	163382
#
# Disc length: 2382 seconds
#
# Revision: 4
# Processed by: cddbd v1.5.2PL0 Copyright (c) Steve Scherf et al.
# Submitted via: CDex 1.51
#
DISCID=ab094c0c
DTITLE=Carrà Raffaella - Raffaella Carrà - 2000
DYEAR=1900
DGENRE=Pop
TTITLE0=If i give my heart to you
TTITLE1=Raggae Rrrrr!
TTITLE2=Close to you
TTITLE3=E penso a te
TTITLE4=Vi dirò la verità
TTITLE5=Ma che sera
TTITLE6=Conta su di me
TTITLE7=Non ti mettere con Bill
TTITLE8=Maga maghella
TTITLE9=El borriquito
TTITLE10=Papà
TTITLE11=Raindrops keep falling on my head (Gocce di Pioggia su di me)
EXTD=
EXTT0=
EXTT1=
EXTT2=
EXTT3=
EXTT4=
EXTT5=
EXTT6=
EXTT7=
EXTT8=
EXTT9=
EXTT10=
EXTT11=
PLAYORDER=
